# File created by Blade
# Date/Time:  Tue Apr 07 20:22:24 2015
#---------------------------------------------------------
:version 1.10
:name HOM
:units
  mass 1.0
  length 1.000000
  angle deg
:documentation
     Acclaim Skeleton File
:root
   axis xyz
   order TX TY TZ RX RY RZ
   position 0.000000 0.000000 0.000000
   orientation 0 0 0
:bonedata
   begin
      id 1
      name Spine_dum
      direction 0.000000 1.000000 0.000000
      length 4.885285
      axis 0.0 0.0 0.0 xyz
   end
   begin
      id 2
      name LeftUpLeg_dum
      direction 1.000000 0.000000 0.000000
      length 2.672193
      axis 0.0 0.0 0.0 xyz
   end
   begin
      id 3
      name RightUpLeg_dum
      direction -1.000000 0.000000 0.000000
      length 2.672193
      axis 0.0 0.0 0.0 xyz
   end
   begin
      id 4
      name Spine
      direction 0.000000 1.000000 0.000000
      length 0.000000
      axis 0.0 0.0 0.0 xyz
      dof rx ry rz
   end
   begin
      id 5
      name Spine_dum1
      direction 0.000000 1.000000 0.000000
      length 16.494159
      axis 0.0 0.0 0.0 xyz
   end
   begin
      id 6
      name Spine_dum2
      direction 0.000000 1.000000 0.000000
      length 10.663448
      axis 0.0 0.0 0.0 xyz
   end
   begin
      id 7
      name Spine_dum3
      direction 0.000000 1.000000 0.000000
      length 10.663448
      axis 0.0 0.0 0.0 xyz
   end
   begin
      id 8
      name Head
      direction 0.000000 1.000000 0.000000
      length 4.527550
      axis 0.0 0.0 0.0 xyz
      dof rx ry rz
   end
   begin
      id 9
      name LeftShoulder
      direction 1.000000 0.000000 0.000000
      length 7.531907
      axis 0.0 0.0 -90.0 xyz
      dof rx ry rz
   end
   begin
      id 10
      name LeftArm
      direction 1.000000 0.000000 0.000000
      length 10.229199
      axis 0.0 0.0 -90.0 xyz
      dof rx ry rz
   end
   begin
      id 11
      name LeftForeArm
      direction 1.000000 0.000000 0.000000
      length 8.673495
      axis 0.0 0.0 -90.0 xyz
      dof ry rz rx
   end
   begin
      id 12
      name LeftHand
      direction 0.000000 0.000000 0.000000
      length 0.000000
      axis 0.0 0.0 -90.0 xyz
      dof rx ry rz
   end
   begin
      id 13
      name LeftHand_dum1
      direction 0.000000 0.000000 0.000000
      length 0.000000
      axis 0.0 0.0 -90.0 xyz
   end
   begin
      id 14
      name LeftHand_dum2
      direction 1.000000 0.000000 0.000000
      length 3.937000
      axis 0.0 0.0 -90.0 xyz
   end
   begin
      id 15
      name LeftHandThumb1
      direction 0.000000 0.000000 1.000000
      length 3.937000
      axis 0.0 0.0 -90.0 xyz
      dof rx rz ry
   end
   begin
      id 16
      name RightShoulder
      direction -1.000000 0.000000 0.000000
      length 7.531907
      axis 0.0 0.0 90.0 xyz
      dof rx ry rz
   end
   begin
      id 17
      name RightArm
      direction -1.000000 0.000000 0.000000
      length 10.229199
      axis 0.0 0.0 90.0 xyz
      dof rx ry rz
   end
   begin
      id 18
      name RightForeArm
      direction -1.000000 0.000000 0.000000
      length 8.673495
      axis 0.0 0.0 90.0 xyz
      dof ry rz rx
   end
   begin
      id 19
      name RightHand
      direction 0.000000 0.000000 0.000000
      length 0.000000
      axis 0.0 0.0 90.0 xyz
      dof rx ry rz
   end
   begin
      id 20
      name RightHand_dum1
      direction 0.000000 0.000000 0.000000
      length 0.000000
      axis 0.0 0.0 90.0 xyz
   end
   begin
      id 21
      name RightHand_dum2
      direction -1.000000 0.000000 0.000000
      length 3.937000
      axis 0.0 0.0 90.0 xyz
   end
   begin
      id 22
      name RightHandThumb1
      direction 0.000000 0.000000 1.000000
      length 3.937000
      axis 0.0 0.0 90.0 xyz
      dof rx rz ry
   end
   begin
      id 23
      name LeftUpLeg
      direction 0.000000 -1.000000 0.000000
      length 16.263388
      axis 0.0 0.0 0.0 xyz
      dof rx ry rz
   end
   begin
      id 24
      name LeftLeg
      direction 0.000000 -1.000000 0.000000
      length 14.328163
      axis 0.0 0.0 0.0 xyz
      dof rx ry rz
   end
   begin
      id 25
      name LeftFoot
      direction 0.000000 -0.258819 0.965926
      length 5.031290
      axis 15.0 0.0 0.0 xyz
      dof rx ry rz
   end
   begin
      id 26
      name LeftToeBase
      direction 0.000000 0.000000 1.000000
      length 2.952750
      axis 0.0 0.0 0.0 xyz
      dof rx ry rz
   end
   begin
      id 27
      name RightUpLeg
      direction 0.000000 -1.000000 0.000000
      length 16.263388
      axis 0.0 0.0 0.0 xyz
      dof rx ry rz
   end
   begin
      id 28
      name RightLeg
      direction 0.000000 -1.000000 0.000000
      length 14.328163
      axis 0.0 0.0 0.0 xyz
      dof rx ry rz
   end
   begin
      id 29
      name RightFoot
      direction 0.000000 -0.258819 0.965926
      length 5.031290
      axis 15.0 0.0 0.0 xyz
      dof rx ry rz
   end
   begin
      id 30
      name RightToeBase
      direction 0.000000 0.000000 1.000000
      length 2.952750
      axis 0.0 0.0 0.0 xyz
      dof rx ry rz
   end
:hierarchy
   begin
      root Spine_dum LeftUpLeg_dum RightUpLeg_dum
      Spine_dum Spine
      LeftUpLeg_dum LeftUpLeg
      RightUpLeg_dum RightUpLeg
      Spine Spine_dum1 Spine_dum2 Spine_dum3
      Spine_dum1 Head
      Spine_dum2 LeftShoulder
      Spine_dum3 RightShoulder
      LeftShoulder LeftArm
      LeftArm LeftForeArm
      LeftForeArm LeftHand
      LeftHand LeftHand_dum1 LeftHand_dum2
      LeftHand_dum1 LeftHandThumb1
      RightShoulder RightArm
      RightArm RightForeArm
      RightForeArm RightHand
      RightHand RightHand_dum1 RightHand_dum2
      RightHand_dum1 RightHandThumb1
      LeftUpLeg LeftLeg
      LeftLeg LeftFoot
      LeftFoot LeftToeBase
      RightUpLeg RightLeg
      RightLeg RightFoot
      RightFoot RightToeBase
   end

# File created by Blade
# Date/Time:  Tue Apr 07 20:22:14 2015
# Frame Rate: 120.000 fps
#------------------------------------------------------
:FULLY-SPECIFIED
:DEGREES
1
root 2.132595 32.792021 -7.840081 12.876969 1.622184 -0.567241
Spine -15.926599 -6.531320 -0.298041
Head 12.230733 -1.070282 0.147486
LeftShoulder -19.290870 39.239830 22.884377
LeftArm 54.342693 -55.423866 -56.575750
LeftForeArm 6.312705 -0.000000 -2.168660
LeftHand 5.842565 0.000000 4.226840
LeftHandThumb1 -26.253704 0.000000 33.147579
RightShoulder -7.864614 5.234854 -31.085762
RightArm 10.549441 16.153152 42.423095
RightForeArm -7.434392 0.000000 -1.154461
RightHand 5.377923 -0.000000 -0.523125
RightHandThumb1 -24.326973 -0.000000 -32.862282
LeftUpLeg -6.362472 -2.310181 2.594844
LeftLeg -3.812277 -0.000000 0.000000
LeftFoot -5.008077 7.845665 -17.439741
LeftToeBase -8.413542 -0.000000 0.000000
RightUpLeg -6.761565 -2.069042 1.652325
RightLeg -3.550054 -0.000000 0.000000
RightFoot -6.492802 -8.076966 5.552918
RightToeBase 0.825551 -0.000000 -0.000000
2
root 2.132073 32.791650 -7.840936 12.877262 1.621846 -0.564774
Spine -15.905598 -6.542811 -0.296741
Head 12.199478 -1.058346 0.151942
LeftShoulder -19.307208 39.241262 22.879940
LeftArm 54.369770 -55.419105 -56.609852
LeftForeArm 6.358509 -0.000000 -2.183481
LeftHand 5.871771 -0.000000 4.219272
LeftHandThumb1 -26.253704 0.000000 33.147579
RightShoulder -7.844534 5.220125 -31.073131
RightArm 10.531985 16.160749 42.407541
RightForeArm -7.592008 -0.000000 -1.154758
RightHand 5.319785 -0.000000 -0.474265
RightHandThumb1 -24.326973 -0.000000 -32.862282
LeftUpLeg -6.366128 -2.305760 2.592900
LeftLeg -3.802871 -0.000000 0.000000
LeftFoot -5.022183 7.815533 -17.465560
LeftToeBase -8.413385 -0.000000 0.000000
RightUpLeg -6.761313 -2.052669 1.648304
RightLeg -3.553074 -0.000000 0.000000
RightFoot -6.505085 -8.092129 5.568603
RightToeBase 0.823830 -0.000000 -0.000000
3
root 2.132987 32.791049 -7.842407 12.874295 1.617505 -0.559467
Spine -15.879159 -6.535891 -0.295752
Head 12.166863 -1.092300 0.144578
LeftShoulder -19.298541 39.234800 22.881473
LeftArm 54.330151 -55.395897 -56.578720
LeftForeArm 6.335037 -0.000000 -2.178382
LeftHand 5.878638 0.000000 4.203153
LeftHandThumb1 -26.253704 0.000000 33.147579
RightShoulder -7.845381 5.195129 -31.071291
RightArm 10.531150 16.171097 42.413654
RightForeArm -7.603855 -0.000000 -1.149381
RightHand 5.314827 -0.000000 -0.507111
RightHandThumb1 -24.326973 -0.000000 -32.862282
LeftUpLeg -6.367419 -2.303186 2.582974
LeftLeg -3.797598 -0.000000 0.000000
LeftFoot -5.038448 7.818208 -17.462511
LeftToeBase -8.422612 -0.000000 0.000000
RightUpLeg -6.765352 -2.065299 1.636821
RightLeg -3.533240 -0.000000 0.000000
RightFoot -6.511732 -8.051316 5.487936
RightToeBase 0.784017 -0.000000 -0.000000
4
root 2.132031 32.790483 -7.844341 12.884786 1.621345 -0.565938
Spine -15.867427 -6.527791 -0.286053
Head 12.135253 -1.119158 0.142369
LeftShoulder -19.295576 39.227153 22.888846
LeftArm 54.364046 -55.389378 -56.622268
LeftForeArm 6.322021 0.000000 -2.184304
LeftHand 5.879072 -0.000000 4.189358
LeftHandThumb1 -26.253704 0.000000 33.147579
RightShoulder -7.849224 5.176769 -31.066124
RightArm 10.515833 16.184664 42.412148
RightForeArm -7.577360 -0.000000 -1.146847
RightHand 5.325650 -0.000000 -0.512625
RightHandThumb1 -24.326973 -0.000000 -32.862282
LeftUpLeg -6.378351 -2.314064 2.592247
LeftLeg -3.808465 -0.000000 0.000000
LeftFoot -5.042191 7.852261 -17.440226
LeftToeBase -8.368332 -0.000000 0.000000
RightUpLeg -6.780395 -2.065668 1.646825
RightLeg -3.527604 -0.000000 0.000000
RightFoot -6.532389 -8.054599 5.487336
RightToeBase 0.818884 -0.000000 -0.000000
5
root 2.132209 32.789965 -7.845820 12.891447 1.612405 -0.561170
Spine -15.854854 -6.516054 -0.294032
Head 12.121317 -1.142722 0.155515
LeftShoulder -19.287891 39.229731 22.897254
LeftArm 54.369797 -55.382306 -56.641856
LeftForeArm 6.372240 0.000000 -2.168728
LeftHand 5.893799 -0.000000 4.134045
LeftHandThumb1 -26.253704 0.000000 33.147579
RightShoulder -7.850657 5.137112 -31.047635
RightArm 10.520506 16.210217 42.409157
RightForeArm -7.567732 -0.000000 -1.132352
RightHand 5.322471 0.000000 -0.449529
RightHandThumb1 -24.326973 -0.000000 -32.862282
LeftUpLeg -6.387268 -2.311034 2.584558
LeftLeg -3.799599 -0.000000 0.000000
LeftFoot -5.052594 7.846952 -17.446928
LeftToeBase -8.446313 -0.000000 0.000000
RightUpLeg -6.788789 -2.061015 1.639256
RightLeg -3.528157 -0.000000 0.000000
RightFoot -6.545545 -8.043199 5.510918
RightToeBase 0.833580 -0.000000 -0.000000
6
root 2.131225 32.789250 -7.847237 12.892802 1.618080 -0.566631
Spine -15.835842 -6.527398 -0.277642
Head 12.106544 -1.153350 0.136672
LeftShoulder -19.297565 39.236963 22.885413
LeftArm 54.435204 -55.411395 -56.728708
LeftForeArm 6.353604 0.000000 -2.181508
LeftHand 5.906770 0.000000 4.115813
LeftHandThumb1 -26.253704 0.000000 33.147579
RightShoulder -7.854201 5.154667 -31.061157
RightArm 10.505198 16.204814 42.428228
RightForeArm -7.550717 -0.000000 -1.129007
RightHand 5.331641 -0.000000 -0.418550
RightHandThumb1 -24.326973 -0.000000 -32.862282
LeftUpLeg -6.391436 -2.305515 2.589577
LeftLeg -3.800442 -0.000000 0.000000
LeftFoot -5.058660 7.848232 -17.442244
LeftToeBase -8.416940 -0.000000 0.000000
RightUpLeg -6.790614 -2.066066 1.648953
RightLeg -3.529776 -0.000000 0.000000
RightFoot -6.545664 -8.049701 5.501172
RightToeBase 0.824214 -0.000000 -0.000000
7
root 2.130923 32.788794 -7.849325 12.905634 1.623502 -0.564639
Spine -15.832313 -6.527885 -0.277894
Head 12.106522 -1.182213 0.144377
LeftShoulder -19.297671 39.239059 22.887840
LeftArm 54.438686 -55.382868 -56.725868
LeftForeArm 6.374279 0.000000 -2.178906
LeftHand 5.842984 -0.000000 4.132786
LeftHandThumb1 -26.253704 0.000000 33.147579
RightShoulder -7.862366 5.145137 -31.046193
RightArm 10.508553 16.236729 42.425433
RightForeArm -7.568331 -0.000000 -1.134385
RightHand 5.331428 -0.000000 -0.396307
RightHandThumb1 -24.326973 -0.000000 -32.862282
LeftUpLeg -6.407945 -2.303008 2.589114
LeftLeg -3.800413 -0.000000 0.000000
LeftFoot -5.057108 7.837349 -17.439724
LeftToeBase -8.440330 -0.000000 0.000000
RightUpLeg -6.801636 -2.068239 1.647469
RightLeg -3.537896 -0.000000 0.000000
RightFoot -6.555479 -8.045699 5.523135
RightToeBase 0.788474 -0.000000 -0.000000
8
root 2.129554 32.788535 -7.851760 12.915754 1.629872 -0.561163
Spine -15.812828 -6.534126 -0.291588
Head 12.073066 -1.093742 0.153170
LeftShoulder -19.302986 39.210742 22.914641
LeftArm 54.474482 -55.373645 -56.787612
LeftForeArm 6.407727 -0.000000 -2.175481
LeftHand 5.811967 -0.000000 4.122638
LeftHandThumb1 -26.253704 0.000000 33.147579
RightShoulder -7.891307 5.202713 -31.022970
RightArm 10.487816 16.184221 42.403099
RightForeArm -7.555944 0.000000 -1.151041
RightHand 5.348294 -0.000000 -0.335593
RightHandThumb1 -24.326973 -0.000000 -32.862282
LeftUpLeg -6.422526 -2.281359 2.586639
LeftLeg -3.803088 -0.000000 0.000000
LeftFoot -5.059640 7.821363 -17.449912
LeftToeBase -8.321572 -0.000000 0.000000
RightUpLeg -6.809378 -2.071736 1.648392
RightLeg -3.550828 -0.000000 0.000000
RightFoot -6.560806 -8.048193 5.528777
RightToeBase 0.830434 -0.000000 -0.000000
9
root 2.129451 32.788020 -7.853338 12.927121 1.631440 -0.558677
Spine -15.810847 -6.545340 -0.288645
Head 12.090236 -1.064876 0.159912
LeftShoulder -19.322535 39.220891 22.897175
LeftArm 54.515129 -55.370841 -56.815252
LeftForeArm 6.379143 -0.000000 -2.186979
LeftHand 5.795326 -0.000000 4.122420
LeftHandThumb1 -26.253704 0.000000 33.147579
RightShoulder -7.886463 5.213223 -31.019183
RightArm 10.478258 16.203100 42.407116
RightForeArm -7.558727 -0.000000 -1.154346
RightHand 5.327398 0.000000 -0.314421
RightHandThumb1 -24.326973 -0.000000 -32.862282
LeftUpLeg -6.425903 -2.292509 2.585930
LeftLeg -3.826772 -0.000000 0.000000
LeftFoot -5.064010 7.840527 -17.471868
LeftToeBase -8.290381 -0.000000 0.000000
RightUpLeg -6.820392 -2.089948 1.649053
RightLeg -3.554434 -0.000000 0.000000
RightFoot -6.557575 -8.035520 5.507477
RightToeBase 0.813537 -0.000000 -0.000000
10
root 2.128177 32.787744 -7.855008 12.938712 1.631792 -0.565445
Spine -15.811466 -6.539199 -0.280202
Head 12.114677 -1.085445 0.164437
LeftShoulder -19.305066 39.219936 22.907695
LeftArm 54.497258 -55.359019 -56.808831
LeftForeArm 6.365884 -0.000000 -2.178604
LeftHand 5.782057 -0.000000 4.088748
LeftHandThumb1 -26.253704 0.000000 33.147579
RightShoulder -7.910106 5.195273 -31.019806
RightArm 10.512408 16.195685 42.427681
RightForeArm -7.533834 -0.000000 -1.172671
RightHand 5.318757 -0.000000 -0.314599
RightHandThumb1 -24.326973 -0.000000 -32.862282
LeftUpLeg -6.432788 -2.294150 2.594680
LeftLeg -3.834486 -0.000000 0.000000
LeftFoot -5.050134 7.833886 -17.426241
LeftToeBase -8.419859 -0.000000 0.000000
RightUpLeg -6.827034 -2.086219 1.664454
RightLeg -3.577083 -0.000000 0.000000
RightFoot -6.562719 -8.066905 5.595895
RightToeBase 0.819301 -0.000000 -0.000000
11
root 2.128223 32.787478 -7.857227 12.953199 1.636834 -0.556985
Spine -15.817673 -6.551131 -0.280622
Head 12.153554 -1.080517 0.159983
LeftShoulder -19.291443 39.200709 22.910625
LeftArm 54.477549 -55.352408 -56.789384
LeftForeArm 6.341603 -0.000000 -2.185521
LeftHand 5.737698 -0.000000 4.021156
LeftHandThumb1 -26.253704 0.000000 33.147579
RightShoulder -7.900836 5.220266 -31.024314
RightArm 10.497467 16.192685 42.445853
RightForeArm -7.408482 0.000000 -1.185757
RightHand 5.303448 -0.000000 -0.398898
RightHandThumb1 -24.326973 -0.000000 -32.862282
LeftUpLeg -6.455456 -2.278755 2.588273
LeftLeg -3.824661 -0.000000 0.000000
LeftFoot -5.053847 7.792759 -17.467889
LeftToeBase -8.391252 -0.000000 0.000000
RightUpLeg -6.841943 -2.109202 1.654266
RightLeg -3.573048 -0.000000 0.000000
RightFoot -6.561542 -8.022206 5.532967
RightToeBase 0.799890 -0.000000 -0.000000
